<mxfile host="app.diagrams.net" modified="2023-10-17T13:28:54.660Z" agent="Mozilla/5.0 (Windows NT 10.0; Win64; x64) AppleWebKit/537.36 (KHTML, like Gecko) Chrome/117.0.0.0 Safari/537.36 Edg/117.0.2045.47" etag="-2Gj1FQusAoWUcUan_n0" version="21.8.0" type="device">
  <diagram id="C5RBs43oDa-KdzZeNtuy" name="Page-1">
    <mxGraphModel dx="2620" dy="2699" grid="1" gridSize="10" guides="1" tooltips="1" connect="1" arrows="1" fold="1" page="1" pageScale="1" pageWidth="827" pageHeight="1169" math="0" shadow="0">
      <root>
        <mxCell id="WIyWlLk6GJQsqaUBKTNV-0" />
        <mxCell id="WIyWlLk6GJQsqaUBKTNV-1" parent="WIyWlLk6GJQsqaUBKTNV-0" />
        <mxCell id="-ehD-y1rSzZQJxSIcZfM-113" value="" style="rounded=1;whiteSpace=wrap;html=1;fillColor=none;" vertex="1" parent="WIyWlLk6GJQsqaUBKTNV-1">
          <mxGeometry x="80" y="-70" width="540" height="1270" as="geometry" />
        </mxCell>
        <mxCell id="WIyWlLk6GJQsqaUBKTNV-3" value="Website öffnen" style="rounded=1;whiteSpace=wrap;html=1;fontSize=12;glass=0;strokeWidth=1;shadow=0;" parent="WIyWlLk6GJQsqaUBKTNV-1" vertex="1">
          <mxGeometry x="280" y="20" width="120" height="40" as="geometry" />
        </mxCell>
        <mxCell id="WIyWlLk6GJQsqaUBKTNV-6" value="" style="rhombus;whiteSpace=wrap;html=1;shadow=0;fontFamily=Helvetica;fontSize=12;align=center;strokeWidth=1;spacing=6;spacingTop=-4;" parent="WIyWlLk6GJQsqaUBKTNV-1" vertex="1">
          <mxGeometry x="325" y="90" width="30" height="30" as="geometry" />
        </mxCell>
        <mxCell id="-ehD-y1rSzZQJxSIcZfM-1" value="" style="ellipse;whiteSpace=wrap;html=1;aspect=fixed;fillColor=#000000;" vertex="1" parent="WIyWlLk6GJQsqaUBKTNV-1">
          <mxGeometry x="330" y="-20" width="20" height="20" as="geometry" />
        </mxCell>
        <mxCell id="-ehD-y1rSzZQJxSIcZfM-4" value="" style="endArrow=open;html=1;rounded=0;endFill=0;entryX=0;entryY=0.5;entryDx=0;entryDy=0;exitX=0;exitY=0.5;exitDx=0;exitDy=0;" edge="1" parent="WIyWlLk6GJQsqaUBKTNV-1" source="WIyWlLk6GJQsqaUBKTNV-6" target="-ehD-y1rSzZQJxSIcZfM-12">
          <mxGeometry width="50" height="50" relative="1" as="geometry">
            <mxPoint x="490" y="100" as="sourcePoint" />
            <mxPoint x="490" y="200" as="targetPoint" />
            <Array as="points">
              <mxPoint x="260" y="105" />
              <mxPoint x="260" y="195" />
            </Array>
          </mxGeometry>
        </mxCell>
        <mxCell id="-ehD-y1rSzZQJxSIcZfM-8" value="Spiel starten" style="edgeLabel;html=1;align=center;verticalAlign=middle;resizable=0;points=[];" vertex="1" connectable="0" parent="-ehD-y1rSzZQJxSIcZfM-4">
          <mxGeometry x="0.1212" y="-3" relative="1" as="geometry">
            <mxPoint x="33" y="-73" as="offset" />
          </mxGeometry>
        </mxCell>
        <mxCell id="-ehD-y1rSzZQJxSIcZfM-6" value="Spiel einstellen" style="rounded=1;whiteSpace=wrap;html=1;fontSize=12;glass=0;strokeWidth=1;shadow=0;" vertex="1" parent="WIyWlLk6GJQsqaUBKTNV-1">
          <mxGeometry x="400" y="175" width="120" height="40" as="geometry" />
        </mxCell>
        <mxCell id="-ehD-y1rSzZQJxSIcZfM-7" value="Event erscheint" style="rounded=1;whiteSpace=wrap;html=1;fontSize=12;glass=0;strokeWidth=1;shadow=0;" vertex="1" parent="WIyWlLk6GJQsqaUBKTNV-1">
          <mxGeometry x="280" y="340" width="120" height="40" as="geometry" />
        </mxCell>
        <mxCell id="-ehD-y1rSzZQJxSIcZfM-9" value="" style="endArrow=open;html=1;rounded=0;endFill=0;exitX=1;exitY=0.5;exitDx=0;exitDy=0;entryX=0.5;entryY=0;entryDx=0;entryDy=0;" edge="1" parent="WIyWlLk6GJQsqaUBKTNV-1" source="WIyWlLk6GJQsqaUBKTNV-6" target="-ehD-y1rSzZQJxSIcZfM-6">
          <mxGeometry width="50" height="50" relative="1" as="geometry">
            <mxPoint x="510" y="80" as="sourcePoint" />
            <mxPoint x="510" y="130" as="targetPoint" />
            <Array as="points">
              <mxPoint x="460" y="105" />
            </Array>
          </mxGeometry>
        </mxCell>
        <mxCell id="-ehD-y1rSzZQJxSIcZfM-10" value="Einstellungen öffnen" style="edgeLabel;html=1;align=center;verticalAlign=middle;resizable=0;points=[];" vertex="1" connectable="0" parent="-ehD-y1rSzZQJxSIcZfM-9">
          <mxGeometry x="-0.1192" relative="1" as="geometry">
            <mxPoint x="-18" y="-15" as="offset" />
          </mxGeometry>
        </mxCell>
        <mxCell id="-ehD-y1rSzZQJxSIcZfM-11" value="" style="endArrow=open;html=1;rounded=0;endFill=0;entryX=1;entryY=0.5;entryDx=0;entryDy=0;exitX=0;exitY=0.5;exitDx=0;exitDy=0;" edge="1" parent="WIyWlLk6GJQsqaUBKTNV-1" source="-ehD-y1rSzZQJxSIcZfM-6" target="-ehD-y1rSzZQJxSIcZfM-12">
          <mxGeometry width="50" height="50" relative="1" as="geometry">
            <mxPoint x="480" y="170" as="sourcePoint" />
            <mxPoint x="480" y="270" as="targetPoint" />
            <Array as="points">
              <mxPoint x="400" y="195" />
            </Array>
          </mxGeometry>
        </mxCell>
        <mxCell id="-ehD-y1rSzZQJxSIcZfM-12" value="" style="rhombus;whiteSpace=wrap;html=1;shadow=0;fontFamily=Helvetica;fontSize=12;align=center;strokeWidth=1;spacing=6;spacingTop=-4;" vertex="1" parent="WIyWlLk6GJQsqaUBKTNV-1">
          <mxGeometry x="325" y="180" width="30" height="30" as="geometry" />
        </mxCell>
        <mxCell id="-ehD-y1rSzZQJxSIcZfM-16" value="" style="endArrow=open;html=1;rounded=0;endFill=0;exitX=0.5;exitY=1;exitDx=0;exitDy=0;entryX=0.5;entryY=0;entryDx=0;entryDy=0;" edge="1" parent="WIyWlLk6GJQsqaUBKTNV-1" source="WIyWlLk6GJQsqaUBKTNV-3" target="WIyWlLk6GJQsqaUBKTNV-6">
          <mxGeometry width="50" height="50" relative="1" as="geometry">
            <mxPoint x="170" y="100" as="sourcePoint" />
            <mxPoint x="170" y="200" as="targetPoint" />
          </mxGeometry>
        </mxCell>
        <mxCell id="-ehD-y1rSzZQJxSIcZfM-18" value="" style="rhombus;whiteSpace=wrap;html=1;shadow=0;fontFamily=Helvetica;fontSize=12;align=center;strokeWidth=1;spacing=6;spacingTop=-4;" vertex="1" parent="WIyWlLk6GJQsqaUBKTNV-1">
          <mxGeometry x="325" y="400" width="30" height="30" as="geometry" />
        </mxCell>
        <mxCell id="-ehD-y1rSzZQJxSIcZfM-19" value="" style="endArrow=open;html=1;rounded=0;endFill=0;exitX=0.5;exitY=1;exitDx=0;exitDy=0;entryX=0.5;entryY=0;entryDx=0;entryDy=0;" edge="1" parent="WIyWlLk6GJQsqaUBKTNV-1" source="-ehD-y1rSzZQJxSIcZfM-7" target="-ehD-y1rSzZQJxSIcZfM-18">
          <mxGeometry width="50" height="50" relative="1" as="geometry">
            <mxPoint x="170" y="210" as="sourcePoint" />
            <mxPoint x="170" y="310" as="targetPoint" />
          </mxGeometry>
        </mxCell>
        <mxCell id="-ehD-y1rSzZQJxSIcZfM-20" value="" style="endArrow=open;html=1;rounded=0;endFill=0;exitX=0;exitY=0.5;exitDx=0;exitDy=0;entryX=0.5;entryY=0;entryDx=0;entryDy=0;" edge="1" parent="WIyWlLk6GJQsqaUBKTNV-1" source="-ehD-y1rSzZQJxSIcZfM-18" target="-ehD-y1rSzZQJxSIcZfM-23">
          <mxGeometry width="50" height="50" relative="1" as="geometry">
            <mxPoint x="180" y="220" as="sourcePoint" />
            <mxPoint x="280" y="450" as="targetPoint" />
            <Array as="points">
              <mxPoint x="210" y="415" />
            </Array>
          </mxGeometry>
        </mxCell>
        <mxCell id="-ehD-y1rSzZQJxSIcZfM-26" value="Reaktion 1" style="edgeLabel;html=1;align=center;verticalAlign=middle;resizable=0;points=[];" vertex="1" connectable="0" parent="-ehD-y1rSzZQJxSIcZfM-20">
          <mxGeometry x="0.0528" relative="1" as="geometry">
            <mxPoint x="4" y="-15" as="offset" />
          </mxGeometry>
        </mxCell>
        <mxCell id="-ehD-y1rSzZQJxSIcZfM-21" value="" style="endArrow=open;html=1;rounded=0;endFill=0;exitX=0.5;exitY=1;exitDx=0;exitDy=0;entryX=0.5;entryY=0;entryDx=0;entryDy=0;" edge="1" parent="WIyWlLk6GJQsqaUBKTNV-1" source="-ehD-y1rSzZQJxSIcZfM-18" target="-ehD-y1rSzZQJxSIcZfM-24">
          <mxGeometry width="50" height="50" relative="1" as="geometry">
            <mxPoint x="190" y="230" as="sourcePoint" />
            <mxPoint x="340" y="460" as="targetPoint" />
          </mxGeometry>
        </mxCell>
        <mxCell id="-ehD-y1rSzZQJxSIcZfM-27" value="Reaktion 2" style="edgeLabel;html=1;align=center;verticalAlign=middle;resizable=0;points=[];" vertex="1" connectable="0" parent="-ehD-y1rSzZQJxSIcZfM-21">
          <mxGeometry x="-0.4449" y="3" relative="1" as="geometry">
            <mxPoint x="27" as="offset" />
          </mxGeometry>
        </mxCell>
        <mxCell id="-ehD-y1rSzZQJxSIcZfM-22" value="" style="endArrow=open;html=1;rounded=0;endFill=0;exitX=1;exitY=0.5;exitDx=0;exitDy=0;entryX=0.5;entryY=0;entryDx=0;entryDy=0;" edge="1" parent="WIyWlLk6GJQsqaUBKTNV-1" source="-ehD-y1rSzZQJxSIcZfM-18">
          <mxGeometry width="50" height="50" relative="1" as="geometry">
            <mxPoint x="200" y="240" as="sourcePoint" />
            <mxPoint x="470" y="470" as="targetPoint" />
            <Array as="points">
              <mxPoint x="470" y="415" />
            </Array>
          </mxGeometry>
        </mxCell>
        <mxCell id="-ehD-y1rSzZQJxSIcZfM-28" value="Reaktion 3" style="edgeLabel;html=1;align=center;verticalAlign=middle;resizable=0;points=[];" vertex="1" connectable="0" parent="-ehD-y1rSzZQJxSIcZfM-22">
          <mxGeometry x="0.4519" y="-2" relative="1" as="geometry">
            <mxPoint x="-28" y="-23" as="offset" />
          </mxGeometry>
        </mxCell>
        <mxCell id="-ehD-y1rSzZQJxSIcZfM-23" value="Ausgang 1" style="rounded=1;whiteSpace=wrap;html=1;fontSize=12;glass=0;strokeWidth=1;shadow=0;" vertex="1" parent="WIyWlLk6GJQsqaUBKTNV-1">
          <mxGeometry x="150" y="470" width="120" height="40" as="geometry" />
        </mxCell>
        <mxCell id="-ehD-y1rSzZQJxSIcZfM-24" value="Ausgang 2" style="rounded=1;whiteSpace=wrap;html=1;fontSize=12;glass=0;strokeWidth=1;shadow=0;" vertex="1" parent="WIyWlLk6GJQsqaUBKTNV-1">
          <mxGeometry x="280" y="470" width="120" height="40" as="geometry" />
        </mxCell>
        <mxCell id="-ehD-y1rSzZQJxSIcZfM-25" value="Ausgang 3" style="rounded=1;whiteSpace=wrap;html=1;fontSize=12;glass=0;strokeWidth=1;shadow=0;" vertex="1" parent="WIyWlLk6GJQsqaUBKTNV-1">
          <mxGeometry x="413.5" y="470" width="120" height="40" as="geometry" />
        </mxCell>
        <mxCell id="-ehD-y1rSzZQJxSIcZfM-30" value="" style="rhombus;whiteSpace=wrap;html=1;shadow=0;fontFamily=Helvetica;fontSize=12;align=center;strokeWidth=1;spacing=6;spacingTop=-4;" vertex="1" parent="WIyWlLk6GJQsqaUBKTNV-1">
          <mxGeometry x="325" y="550" width="30" height="30" as="geometry" />
        </mxCell>
        <mxCell id="-ehD-y1rSzZQJxSIcZfM-31" value="" style="endArrow=open;html=1;rounded=0;endFill=0;exitX=0.5;exitY=1;exitDx=0;exitDy=0;entryX=0.5;entryY=0;entryDx=0;entryDy=0;" edge="1" parent="WIyWlLk6GJQsqaUBKTNV-1" source="-ehD-y1rSzZQJxSIcZfM-24" target="-ehD-y1rSzZQJxSIcZfM-30">
          <mxGeometry width="50" height="50" relative="1" as="geometry">
            <mxPoint x="375" y="550" as="sourcePoint" />
            <mxPoint x="490" y="605" as="targetPoint" />
            <Array as="points" />
          </mxGeometry>
        </mxCell>
        <mxCell id="-ehD-y1rSzZQJxSIcZfM-33" value="" style="endArrow=open;html=1;rounded=0;endFill=0;entryX=0;entryY=0.5;entryDx=0;entryDy=0;exitX=0.5;exitY=1;exitDx=0;exitDy=0;" edge="1" parent="WIyWlLk6GJQsqaUBKTNV-1" source="-ehD-y1rSzZQJxSIcZfM-23" target="-ehD-y1rSzZQJxSIcZfM-30">
          <mxGeometry width="50" height="50" relative="1" as="geometry">
            <mxPoint x="200" y="510" as="sourcePoint" />
            <mxPoint x="500" y="615" as="targetPoint" />
            <Array as="points">
              <mxPoint x="210" y="565" />
            </Array>
          </mxGeometry>
        </mxCell>
        <mxCell id="-ehD-y1rSzZQJxSIcZfM-34" value="" style="endArrow=open;html=1;rounded=0;endFill=0;exitX=0.5;exitY=1;exitDx=0;exitDy=0;entryX=1;entryY=0.5;entryDx=0;entryDy=0;" edge="1" parent="WIyWlLk6GJQsqaUBKTNV-1" target="-ehD-y1rSzZQJxSIcZfM-30">
          <mxGeometry width="50" height="50" relative="1" as="geometry">
            <mxPoint x="470" y="510" as="sourcePoint" />
            <mxPoint x="510" y="625" as="targetPoint" />
            <Array as="points">
              <mxPoint x="470" y="565" />
            </Array>
          </mxGeometry>
        </mxCell>
        <mxCell id="-ehD-y1rSzZQJxSIcZfM-35" value="Quizfrage erscheint" style="rounded=1;whiteSpace=wrap;html=1;fontSize=12;glass=0;strokeWidth=1;shadow=0;" vertex="1" parent="WIyWlLk6GJQsqaUBKTNV-1">
          <mxGeometry x="280" y="600" width="120" height="40" as="geometry" />
        </mxCell>
        <mxCell id="-ehD-y1rSzZQJxSIcZfM-36" value="" style="endArrow=open;html=1;rounded=0;endFill=0;exitX=0.5;exitY=1;exitDx=0;exitDy=0;entryX=0.5;entryY=0;entryDx=0;entryDy=0;" edge="1" parent="WIyWlLk6GJQsqaUBKTNV-1" source="-ehD-y1rSzZQJxSIcZfM-30" target="-ehD-y1rSzZQJxSIcZfM-35">
          <mxGeometry width="50" height="50" relative="1" as="geometry">
            <mxPoint x="350" y="520" as="sourcePoint" />
            <mxPoint x="350" y="560" as="targetPoint" />
            <Array as="points" />
          </mxGeometry>
        </mxCell>
        <mxCell id="-ehD-y1rSzZQJxSIcZfM-40" value="" style="endArrow=open;html=1;rounded=0;endFill=0;exitX=0.5;exitY=1;exitDx=0;exitDy=0;entryX=0.5;entryY=0;entryDx=0;entryDy=0;" edge="1" parent="WIyWlLk6GJQsqaUBKTNV-1" target="-ehD-y1rSzZQJxSIcZfM-45">
          <mxGeometry width="50" height="50" relative="1" as="geometry">
            <mxPoint x="340" y="640" as="sourcePoint" />
            <mxPoint x="340" y="670" as="targetPoint" />
          </mxGeometry>
        </mxCell>
        <mxCell id="-ehD-y1rSzZQJxSIcZfM-42" value="" style="endArrow=open;html=1;rounded=0;endFill=0;exitX=1;exitY=0.5;exitDx=0;exitDy=0;entryX=0;entryY=0.5;entryDx=0;entryDy=0;" edge="1" parent="WIyWlLk6GJQsqaUBKTNV-1" source="-ehD-y1rSzZQJxSIcZfM-47" target="-ehD-y1rSzZQJxSIcZfM-46">
          <mxGeometry width="50" height="50" relative="1" as="geometry">
            <mxPoint x="355" y="679.5" as="sourcePoint" />
            <mxPoint x="390" y="704.5" as="targetPoint" />
            <Array as="points">
              <mxPoint x="430" y="765" />
            </Array>
          </mxGeometry>
        </mxCell>
        <mxCell id="-ehD-y1rSzZQJxSIcZfM-43" value="Antwort richtig" style="edgeLabel;html=1;align=center;verticalAlign=middle;resizable=0;points=[];" vertex="1" connectable="0" parent="-ehD-y1rSzZQJxSIcZfM-42">
          <mxGeometry x="0.4519" y="-2" relative="1" as="geometry">
            <mxPoint x="-20" y="-17" as="offset" />
          </mxGeometry>
        </mxCell>
        <mxCell id="-ehD-y1rSzZQJxSIcZfM-45" value="Quizfrage beantworten" style="rounded=1;whiteSpace=wrap;html=1;fontSize=12;glass=0;strokeWidth=1;shadow=0;" vertex="1" parent="WIyWlLk6GJQsqaUBKTNV-1">
          <mxGeometry x="280" y="680" width="120" height="40" as="geometry" />
        </mxCell>
        <mxCell id="-ehD-y1rSzZQJxSIcZfM-46" value="Budget aufstocken" style="rounded=1;whiteSpace=wrap;html=1;fontSize=12;glass=0;strokeWidth=1;shadow=0;" vertex="1" parent="WIyWlLk6GJQsqaUBKTNV-1">
          <mxGeometry x="445" y="745" width="120" height="40" as="geometry" />
        </mxCell>
        <mxCell id="-ehD-y1rSzZQJxSIcZfM-47" value="" style="rhombus;whiteSpace=wrap;html=1;shadow=0;fontFamily=Helvetica;fontSize=12;align=center;strokeWidth=1;spacing=6;spacingTop=-4;" vertex="1" parent="WIyWlLk6GJQsqaUBKTNV-1">
          <mxGeometry x="325" y="750" width="30" height="30" as="geometry" />
        </mxCell>
        <mxCell id="-ehD-y1rSzZQJxSIcZfM-48" value="" style="endArrow=open;html=1;rounded=0;endFill=0;exitX=0.5;exitY=1;exitDx=0;exitDy=0;entryX=0.5;entryY=0;entryDx=0;entryDy=0;" edge="1" parent="WIyWlLk6GJQsqaUBKTNV-1" source="-ehD-y1rSzZQJxSIcZfM-45" target="-ehD-y1rSzZQJxSIcZfM-47">
          <mxGeometry width="50" height="50" relative="1" as="geometry">
            <mxPoint x="375" y="814.5" as="sourcePoint" />
            <mxPoint x="490" y="869.5" as="targetPoint" />
            <Array as="points" />
          </mxGeometry>
        </mxCell>
        <mxCell id="-ehD-y1rSzZQJxSIcZfM-54" value="Spielstartet" style="rounded=1;whiteSpace=wrap;html=1;fontSize=12;glass=0;strokeWidth=1;shadow=0;" vertex="1" parent="WIyWlLk6GJQsqaUBKTNV-1">
          <mxGeometry x="280" y="230" width="120" height="40" as="geometry" />
        </mxCell>
        <mxCell id="-ehD-y1rSzZQJxSIcZfM-55" value="" style="endArrow=open;html=1;rounded=0;endFill=0;exitX=0.5;exitY=1;exitDx=0;exitDy=0;entryX=0.5;entryY=0;entryDx=0;entryDy=0;" edge="1" parent="WIyWlLk6GJQsqaUBKTNV-1" source="-ehD-y1rSzZQJxSIcZfM-12" target="-ehD-y1rSzZQJxSIcZfM-54">
          <mxGeometry width="50" height="50" relative="1" as="geometry">
            <mxPoint x="120" y="-20" as="sourcePoint" />
            <mxPoint x="120" y="80" as="targetPoint" />
          </mxGeometry>
        </mxCell>
        <mxCell id="-ehD-y1rSzZQJxSIcZfM-57" value="" style="rhombus;whiteSpace=wrap;html=1;shadow=0;fontFamily=Helvetica;fontSize=12;align=center;strokeWidth=1;spacing=6;spacingTop=-4;" vertex="1" parent="WIyWlLk6GJQsqaUBKTNV-1">
          <mxGeometry x="325" y="290" width="30" height="30" as="geometry" />
        </mxCell>
        <mxCell id="-ehD-y1rSzZQJxSIcZfM-59" value="" style="endArrow=open;html=1;rounded=0;endFill=0;exitX=0.5;exitY=1;exitDx=0;exitDy=0;entryX=0.5;entryY=0;entryDx=0;entryDy=0;" edge="1" parent="WIyWlLk6GJQsqaUBKTNV-1" source="-ehD-y1rSzZQJxSIcZfM-54" target="-ehD-y1rSzZQJxSIcZfM-57">
          <mxGeometry width="50" height="50" relative="1" as="geometry">
            <mxPoint x="350" y="230" as="sourcePoint" />
            <mxPoint x="350" y="250" as="targetPoint" />
          </mxGeometry>
        </mxCell>
        <mxCell id="-ehD-y1rSzZQJxSIcZfM-60" value="" style="endArrow=open;html=1;rounded=0;endFill=0;exitX=0.5;exitY=1;exitDx=0;exitDy=0;entryX=0.5;entryY=0;entryDx=0;entryDy=0;" edge="1" parent="WIyWlLk6GJQsqaUBKTNV-1" source="-ehD-y1rSzZQJxSIcZfM-57" target="-ehD-y1rSzZQJxSIcZfM-7">
          <mxGeometry width="50" height="50" relative="1" as="geometry">
            <mxPoint x="360" y="240" as="sourcePoint" />
            <mxPoint x="360" y="260" as="targetPoint" />
          </mxGeometry>
        </mxCell>
        <mxCell id="-ehD-y1rSzZQJxSIcZfM-75" value="" style="rhombus;whiteSpace=wrap;html=1;shadow=0;fontFamily=Helvetica;fontSize=12;align=center;strokeWidth=1;spacing=6;spacingTop=-4;" vertex="1" parent="WIyWlLk6GJQsqaUBKTNV-1">
          <mxGeometry x="325" y="830" width="30" height="30" as="geometry" />
        </mxCell>
        <mxCell id="-ehD-y1rSzZQJxSIcZfM-76" value="" style="endArrow=open;html=1;rounded=0;endFill=0;exitX=0.5;exitY=1;exitDx=0;exitDy=0;entryX=1;entryY=0.5;entryDx=0;entryDy=0;" edge="1" parent="WIyWlLk6GJQsqaUBKTNV-1" source="-ehD-y1rSzZQJxSIcZfM-46" target="-ehD-y1rSzZQJxSIcZfM-75">
          <mxGeometry width="50" height="50" relative="1" as="geometry">
            <mxPoint x="365" y="775" as="sourcePoint" />
            <mxPoint x="490" y="775" as="targetPoint" />
            <Array as="points">
              <mxPoint x="505" y="845" />
            </Array>
          </mxGeometry>
        </mxCell>
        <mxCell id="-ehD-y1rSzZQJxSIcZfM-78" value="" style="endArrow=open;html=1;rounded=0;endFill=0;exitX=0;exitY=0.5;exitDx=0;exitDy=0;entryX=0;entryY=0.5;entryDx=0;entryDy=0;" edge="1" parent="WIyWlLk6GJQsqaUBKTNV-1" source="-ehD-y1rSzZQJxSIcZfM-47" target="-ehD-y1rSzZQJxSIcZfM-75">
          <mxGeometry width="50" height="50" relative="1" as="geometry">
            <mxPoint x="148.5" y="840" as="sourcePoint" />
            <mxPoint x="273.5" y="840" as="targetPoint" />
            <Array as="points">
              <mxPoint x="270" y="765" />
              <mxPoint x="270" y="845" />
            </Array>
          </mxGeometry>
        </mxCell>
        <mxCell id="-ehD-y1rSzZQJxSIcZfM-79" value="Antwort falsch" style="edgeLabel;html=1;align=center;verticalAlign=middle;resizable=0;points=[];" vertex="1" connectable="0" parent="-ehD-y1rSzZQJxSIcZfM-78">
          <mxGeometry x="0.4519" y="-2" relative="1" as="geometry">
            <mxPoint x="17" y="-97" as="offset" />
          </mxGeometry>
        </mxCell>
        <mxCell id="-ehD-y1rSzZQJxSIcZfM-80" value="" style="endArrow=open;html=1;rounded=0;endFill=0;exitX=0.5;exitY=1;exitDx=0;exitDy=0;" edge="1" parent="WIyWlLk6GJQsqaUBKTNV-1" source="-ehD-y1rSzZQJxSIcZfM-75">
          <mxGeometry width="50" height="50" relative="1" as="geometry">
            <mxPoint x="350" y="730" as="sourcePoint" />
            <mxPoint x="340" y="890" as="targetPoint" />
            <Array as="points" />
          </mxGeometry>
        </mxCell>
        <mxCell id="-ehD-y1rSzZQJxSIcZfM-81" value="" style="rhombus;whiteSpace=wrap;html=1;shadow=0;fontFamily=Helvetica;fontSize=12;align=center;strokeWidth=1;spacing=6;spacingTop=-4;" vertex="1" parent="WIyWlLk6GJQsqaUBKTNV-1">
          <mxGeometry x="255" y="980" width="30" height="30" as="geometry" />
        </mxCell>
        <mxCell id="-ehD-y1rSzZQJxSIcZfM-82" value="Jahr 2025 erreicht" style="rounded=1;whiteSpace=wrap;html=1;fontSize=12;glass=0;strokeWidth=1;shadow=0;" vertex="1" parent="WIyWlLk6GJQsqaUBKTNV-1">
          <mxGeometry x="210" y="920" width="120" height="40" as="geometry" />
        </mxCell>
        <mxCell id="-ehD-y1rSzZQJxSIcZfM-83" value="" style="endArrow=open;html=1;rounded=0;endFill=0;entryX=0.5;entryY=0;entryDx=0;entryDy=0;" edge="1" parent="WIyWlLk6GJQsqaUBKTNV-1" target="-ehD-y1rSzZQJxSIcZfM-81">
          <mxGeometry width="50" height="50" relative="1" as="geometry">
            <mxPoint x="270" y="960" as="sourcePoint" />
            <mxPoint x="280" y="930" as="targetPoint" />
            <Array as="points" />
          </mxGeometry>
        </mxCell>
        <mxCell id="-ehD-y1rSzZQJxSIcZfM-84" value="" style="endArrow=open;html=1;rounded=0;endFill=0;exitX=1;exitY=0.5;exitDx=0;exitDy=0;entryX=0;entryY=0.5;entryDx=0;entryDy=0;" edge="1" parent="WIyWlLk6GJQsqaUBKTNV-1" source="-ehD-y1rSzZQJxSIcZfM-81" target="-ehD-y1rSzZQJxSIcZfM-109">
          <mxGeometry width="50" height="50" relative="1" as="geometry">
            <mxPoint x="469.5" y="930" as="sourcePoint" />
            <mxPoint x="380" y="1070" as="targetPoint" />
            <Array as="points">
              <mxPoint x="310" y="995" />
            </Array>
          </mxGeometry>
        </mxCell>
        <mxCell id="-ehD-y1rSzZQJxSIcZfM-85" value="Ja" style="edgeLabel;html=1;align=center;verticalAlign=middle;resizable=0;points=[];" vertex="1" connectable="0" parent="-ehD-y1rSzZQJxSIcZfM-84">
          <mxGeometry x="-0.32" y="3" relative="1" as="geometry">
            <mxPoint x="1" y="18" as="offset" />
          </mxGeometry>
        </mxCell>
        <mxCell id="-ehD-y1rSzZQJxSIcZfM-86" value="" style="endArrow=open;html=1;rounded=0;endFill=0;exitX=0;exitY=0.5;exitDx=0;exitDy=0;" edge="1" parent="WIyWlLk6GJQsqaUBKTNV-1" source="-ehD-y1rSzZQJxSIcZfM-81">
          <mxGeometry width="50" height="50" relative="1" as="geometry">
            <mxPoint x="260" y="1000" as="sourcePoint" />
            <mxPoint x="100" y="950" as="targetPoint" />
            <Array as="points">
              <mxPoint x="220" y="995" />
              <mxPoint x="100" y="995" />
            </Array>
          </mxGeometry>
        </mxCell>
        <mxCell id="-ehD-y1rSzZQJxSIcZfM-87" value="Nein" style="edgeLabel;html=1;align=center;verticalAlign=middle;resizable=0;points=[];" vertex="1" connectable="0" parent="-ehD-y1rSzZQJxSIcZfM-86">
          <mxGeometry x="-0.04" relative="1" as="geometry">
            <mxPoint x="81" y="-15" as="offset" />
          </mxGeometry>
        </mxCell>
        <mxCell id="-ehD-y1rSzZQJxSIcZfM-88" value="" style="endArrow=none;html=1;rounded=0;strokeWidth=3;" edge="1" parent="WIyWlLk6GJQsqaUBKTNV-1">
          <mxGeometry width="50" height="50" relative="1" as="geometry">
            <mxPoint x="220" y="890" as="sourcePoint" />
            <mxPoint x="470" y="890" as="targetPoint" />
          </mxGeometry>
        </mxCell>
        <mxCell id="-ehD-y1rSzZQJxSIcZfM-89" value="" style="endArrow=open;html=1;rounded=0;endFill=0;entryX=0.5;entryY=0;entryDx=0;entryDy=0;" edge="1" parent="WIyWlLk6GJQsqaUBKTNV-1" target="-ehD-y1rSzZQJxSIcZfM-82">
          <mxGeometry width="50" height="50" relative="1" as="geometry">
            <mxPoint x="270" y="890" as="sourcePoint" />
            <mxPoint x="380" y="930" as="targetPoint" />
            <Array as="points" />
          </mxGeometry>
        </mxCell>
        <mxCell id="-ehD-y1rSzZQJxSIcZfM-90" value="" style="rhombus;whiteSpace=wrap;html=1;shadow=0;fontFamily=Helvetica;fontSize=12;align=center;strokeWidth=1;spacing=6;spacingTop=-4;" vertex="1" parent="WIyWlLk6GJQsqaUBKTNV-1">
          <mxGeometry x="399" y="980" width="30" height="30" as="geometry" />
        </mxCell>
        <mxCell id="-ehD-y1rSzZQJxSIcZfM-91" value="Weltuntergang" style="rounded=1;whiteSpace=wrap;html=1;fontSize=12;glass=0;strokeWidth=1;shadow=0;" vertex="1" parent="WIyWlLk6GJQsqaUBKTNV-1">
          <mxGeometry x="354" y="920" width="120" height="40" as="geometry" />
        </mxCell>
        <mxCell id="-ehD-y1rSzZQJxSIcZfM-92" value="" style="endArrow=open;html=1;rounded=0;endFill=0;entryX=0.5;entryY=0;entryDx=0;entryDy=0;" edge="1" parent="WIyWlLk6GJQsqaUBKTNV-1" target="-ehD-y1rSzZQJxSIcZfM-90">
          <mxGeometry width="50" height="50" relative="1" as="geometry">
            <mxPoint x="414" y="960" as="sourcePoint" />
            <mxPoint x="424" y="930" as="targetPoint" />
            <Array as="points" />
          </mxGeometry>
        </mxCell>
        <mxCell id="-ehD-y1rSzZQJxSIcZfM-93" value="" style="endArrow=open;html=1;rounded=0;endFill=0;exitX=1;exitY=0.5;exitDx=0;exitDy=0;" edge="1" parent="WIyWlLk6GJQsqaUBKTNV-1" source="-ehD-y1rSzZQJxSIcZfM-90">
          <mxGeometry width="50" height="50" relative="1" as="geometry">
            <mxPoint x="613.5" y="930" as="sourcePoint" />
            <mxPoint x="440" y="1070" as="targetPoint" />
            <Array as="points">
              <mxPoint x="440" y="995" />
            </Array>
          </mxGeometry>
        </mxCell>
        <mxCell id="-ehD-y1rSzZQJxSIcZfM-94" value="Ja" style="edgeLabel;html=1;align=center;verticalAlign=middle;resizable=0;points=[];" vertex="1" connectable="0" parent="-ehD-y1rSzZQJxSIcZfM-93">
          <mxGeometry x="-0.32" y="3" relative="1" as="geometry">
            <mxPoint x="-3" y="-33" as="offset" />
          </mxGeometry>
        </mxCell>
        <mxCell id="-ehD-y1rSzZQJxSIcZfM-95" value="" style="endArrow=open;html=1;rounded=0;endFill=0;exitX=0;exitY=0.5;exitDx=0;exitDy=0;entryX=1;entryY=0.5;entryDx=0;entryDy=0;" edge="1" parent="WIyWlLk6GJQsqaUBKTNV-1" source="-ehD-y1rSzZQJxSIcZfM-90" target="-ehD-y1rSzZQJxSIcZfM-109">
          <mxGeometry width="50" height="50" relative="1" as="geometry">
            <mxPoint x="404" y="1000" as="sourcePoint" />
            <mxPoint x="160" y="950" as="targetPoint" />
            <Array as="points">
              <mxPoint x="380" y="995" />
            </Array>
          </mxGeometry>
        </mxCell>
        <mxCell id="-ehD-y1rSzZQJxSIcZfM-96" value="Nein" style="edgeLabel;html=1;align=center;verticalAlign=middle;resizable=0;points=[];" vertex="1" connectable="0" parent="-ehD-y1rSzZQJxSIcZfM-95">
          <mxGeometry x="-0.04" relative="1" as="geometry">
            <mxPoint x="2" y="15" as="offset" />
          </mxGeometry>
        </mxCell>
        <mxCell id="-ehD-y1rSzZQJxSIcZfM-97" value="" style="endArrow=open;html=1;rounded=0;endFill=0;entryX=0.5;entryY=0;entryDx=0;entryDy=0;" edge="1" parent="WIyWlLk6GJQsqaUBKTNV-1" target="-ehD-y1rSzZQJxSIcZfM-91">
          <mxGeometry width="50" height="50" relative="1" as="geometry">
            <mxPoint x="414" y="890" as="sourcePoint" />
            <mxPoint x="280" y="930" as="targetPoint" />
            <Array as="points" />
          </mxGeometry>
        </mxCell>
        <mxCell id="-ehD-y1rSzZQJxSIcZfM-99" value="" style="endArrow=none;html=1;rounded=0;strokeWidth=3;" edge="1" parent="WIyWlLk6GJQsqaUBKTNV-1">
          <mxGeometry width="50" height="50" relative="1" as="geometry">
            <mxPoint x="90" y="950" as="sourcePoint" />
            <mxPoint x="170" y="950" as="targetPoint" />
          </mxGeometry>
        </mxCell>
        <mxCell id="-ehD-y1rSzZQJxSIcZfM-100" value="" style="endArrow=none;html=1;rounded=0;strokeWidth=3;" edge="1" parent="WIyWlLk6GJQsqaUBKTNV-1">
          <mxGeometry width="50" height="50" relative="1" as="geometry">
            <mxPoint x="365" y="1070" as="sourcePoint" />
            <mxPoint x="455" y="1070" as="targetPoint" />
          </mxGeometry>
        </mxCell>
        <mxCell id="-ehD-y1rSzZQJxSIcZfM-101" value="Spiel vorbei" style="rounded=1;whiteSpace=wrap;html=1;fontSize=12;glass=0;strokeWidth=1;shadow=0;" vertex="1" parent="WIyWlLk6GJQsqaUBKTNV-1">
          <mxGeometry x="354" y="1095" width="120" height="40" as="geometry" />
        </mxCell>
        <mxCell id="-ehD-y1rSzZQJxSIcZfM-102" value="" style="endArrow=open;html=1;rounded=0;endFill=0;entryX=0.5;entryY=0;entryDx=0;entryDy=0;" edge="1" parent="WIyWlLk6GJQsqaUBKTNV-1" target="-ehD-y1rSzZQJxSIcZfM-101">
          <mxGeometry width="50" height="50" relative="1" as="geometry">
            <mxPoint x="414" y="1070" as="sourcePoint" />
            <mxPoint x="280" y="930" as="targetPoint" />
            <Array as="points" />
          </mxGeometry>
        </mxCell>
        <mxCell id="-ehD-y1rSzZQJxSIcZfM-103" value="" style="ellipse;whiteSpace=wrap;html=1;aspect=fixed;" vertex="1" parent="WIyWlLk6GJQsqaUBKTNV-1">
          <mxGeometry x="399" y="1160" width="30" height="30" as="geometry" />
        </mxCell>
        <mxCell id="-ehD-y1rSzZQJxSIcZfM-104" value="" style="endArrow=open;html=1;rounded=0;endFill=0;entryX=0;entryY=0.5;entryDx=0;entryDy=0;" edge="1" parent="WIyWlLk6GJQsqaUBKTNV-1" target="-ehD-y1rSzZQJxSIcZfM-7">
          <mxGeometry width="50" height="50" relative="1" as="geometry">
            <mxPoint x="130" y="950" as="sourcePoint" />
            <mxPoint x="120" y="830" as="targetPoint" />
            <Array as="points">
              <mxPoint x="130" y="360" />
            </Array>
          </mxGeometry>
        </mxCell>
        <mxCell id="-ehD-y1rSzZQJxSIcZfM-107" value="" style="ellipse;whiteSpace=wrap;html=1;aspect=fixed;fillColor=#000000;" vertex="1" parent="WIyWlLk6GJQsqaUBKTNV-1">
          <mxGeometry x="403.5" y="1164.5" width="21" height="21" as="geometry" />
        </mxCell>
        <mxCell id="-ehD-y1rSzZQJxSIcZfM-108" value="" style="endArrow=open;html=1;rounded=0;endFill=0;entryX=0.5;entryY=0;entryDx=0;entryDy=0;exitX=0.5;exitY=1;exitDx=0;exitDy=0;" edge="1" parent="WIyWlLk6GJQsqaUBKTNV-1" source="-ehD-y1rSzZQJxSIcZfM-101" target="-ehD-y1rSzZQJxSIcZfM-103">
          <mxGeometry width="50" height="50" relative="1" as="geometry">
            <mxPoint x="424" y="1080" as="sourcePoint" />
            <mxPoint x="424" y="1105" as="targetPoint" />
            <Array as="points" />
          </mxGeometry>
        </mxCell>
        <mxCell id="-ehD-y1rSzZQJxSIcZfM-109" value="" style="rhombus;whiteSpace=wrap;html=1;shadow=0;fontFamily=Helvetica;fontSize=12;align=center;strokeWidth=1;spacing=6;spacingTop=-4;" vertex="1" parent="WIyWlLk6GJQsqaUBKTNV-1">
          <mxGeometry x="325" y="980" width="30" height="30" as="geometry" />
        </mxCell>
        <mxCell id="-ehD-y1rSzZQJxSIcZfM-110" value="" style="endArrow=open;html=1;rounded=0;endFill=0;exitX=0.5;exitY=1;exitDx=0;exitDy=0;" edge="1" parent="WIyWlLk6GJQsqaUBKTNV-1" source="-ehD-y1rSzZQJxSIcZfM-109">
          <mxGeometry width="50" height="50" relative="1" as="geometry">
            <mxPoint x="280" y="900" as="sourcePoint" />
            <mxPoint x="380" y="1070" as="targetPoint" />
            <Array as="points">
              <mxPoint x="340" y="1050" />
              <mxPoint x="380" y="1050" />
            </Array>
          </mxGeometry>
        </mxCell>
        <mxCell id="-ehD-y1rSzZQJxSIcZfM-111" value="" style="endArrow=open;html=1;rounded=0;endFill=0;exitX=0;exitY=0.5;exitDx=0;exitDy=0;" edge="1" parent="WIyWlLk6GJQsqaUBKTNV-1" source="-ehD-y1rSzZQJxSIcZfM-90">
          <mxGeometry width="50" height="50" relative="1" as="geometry">
            <mxPoint x="280" y="900" as="sourcePoint" />
            <mxPoint x="160" y="950" as="targetPoint" />
            <Array as="points">
              <mxPoint x="399" y="1030" />
              <mxPoint x="160" y="1030" />
            </Array>
          </mxGeometry>
        </mxCell>
        <mxCell id="-ehD-y1rSzZQJxSIcZfM-112" value="" style="endArrow=open;html=1;rounded=0;endFill=0;entryX=0.5;entryY=0;entryDx=0;entryDy=0;exitX=0.5;exitY=1;exitDx=0;exitDy=0;" edge="1" parent="WIyWlLk6GJQsqaUBKTNV-1" source="-ehD-y1rSzZQJxSIcZfM-1" target="WIyWlLk6GJQsqaUBKTNV-3">
          <mxGeometry width="50" height="50" relative="1" as="geometry">
            <mxPoint x="290" y="910" as="sourcePoint" />
            <mxPoint x="290" y="940" as="targetPoint" />
            <Array as="points" />
          </mxGeometry>
        </mxCell>
        <mxCell id="-ehD-y1rSzZQJxSIcZfM-115" value="&lt;font style=&quot;font-size: 20px;&quot;&gt;Erdulator spielen&lt;/font&gt;" style="text;html=1;strokeColor=none;fillColor=none;align=center;verticalAlign=middle;whiteSpace=wrap;rounded=0;" vertex="1" parent="WIyWlLk6GJQsqaUBKTNV-1">
          <mxGeometry x="255" y="-60" width="170" height="30" as="geometry" />
        </mxCell>
        <mxCell id="-ehD-y1rSzZQJxSIcZfM-116" value="&lt;font style=&quot;font-size: 20px;&quot;&gt;Aktivitätsdiagramm&lt;/font&gt;" style="text;html=1;strokeColor=none;fillColor=none;align=center;verticalAlign=middle;whiteSpace=wrap;rounded=0;" vertex="1" parent="WIyWlLk6GJQsqaUBKTNV-1">
          <mxGeometry x="90" y="-170" width="140" height="140" as="geometry" />
        </mxCell>
      </root>
    </mxGraphModel>
  </diagram>
</mxfile>
